# xmcd
#
# Track frame offsets:
# 150
# 17322
# 31525
# 50825
# 66647
# 84317
# 98152
# 113174
# 128153
# 143101
# 157955
# 174982
# 190865
# 204647
# 222327
# 243611
# 258409
# 273469
# 288699
#
# Disc length: 4082 seconds
#
#
# Revision: 0
# Processed by: cddbd v1.5.2PL0 Copyright (c) Steve Scherf et al.
# Submitted via: FreeRIP 2.942 
#
DISCID=150ff013
DTITLE=Marco Aurélio and Paulo Sergio - Violada em Campo Grande
DYEAR=2008
DGENRE=Sertanejo
TTITLE0=Deusa Menina
TTITLE1=Magica ou Sonho
TTITLE2=Labirinto
TTITLE3=Apaixonado por Voce
TTITLE4=Quem sebe de mim sou Eu_Saudade Dela
TTITLE5=Festa na Republica
TTITLE6=Deixa Rolar
TTITLE7=Amor Casual
TTITLE8=Deletei
TTITLE9=Nao vivo sem voce
TTITLE10=Mil Perdoes
TTITLE11=Saudade de Mim_Te amo, Nao te quero
TTITLE12=Voce de Volta(part. Maria Cecilia e Rodolfo)
TTITLE13=Novela das Oito
TTITLE14=Mocinhas da Cidade_Cabelo Loiro_Viva a Vida
TTITLE15=Tem Jeito nao
TTITLE16=To de Cara
TTITLE17=Por causa dela
TTITLE18=So da voce
EXTD=
EXTT0=
EXTT1=
EXTT2=
EXTT3=
EXTT4=
EXTT5=
EXTT6=
EXTT7=
EXTT8=
EXTT9=
EXTT10=
EXTT11=
EXTT12=
EXTT13=
EXTT14=
EXTT15=
EXTT16=
EXTT17=
EXTT18=
PLAYORDER=
